<?xml version="1.0" encoding="UTF-8" standalone="no"?>
<!-- Created with Inkscape (http://www.inkscape.org/) -->

<svg
   width="99.999748"
   height="450.00003"
   viewBox="0 0 26.458266 119.06251"
   version="1.1"
   id="svg36979"
   xml:space="preserve"
   inkscape:version="1.2.1 (0f2f062aeb, 2022-09-21, custom)"
   sodipodi:docname="side_panel.svg"
   xmlns:inkscape="http://www.inkscape.org/namespaces/inkscape"
   xmlns:sodipodi="http://sodipodi.sourceforge.net/DTD/sodipodi-0.dtd"
   xmlns="http://www.w3.org/2000/svg"
   xmlns:svg="http://www.w3.org/2000/svg"><sodipodi:namedview
     id="namedview36981"
     pagecolor="#ffffff"
     bordercolor="#666666"
     borderopacity="1.0"
     inkscape:showpageshadow="2"
     inkscape:pageopacity="0.0"
     inkscape:pagecheckerboard="0"
     inkscape:deskcolor="#d1d1d1"
     inkscape:document-units="mm"
     showgrid="false"
     inkscape:zoom="0.53079683"
     inkscape:cx="95.139981"
     inkscape:cy="481.35179"
     inkscape:window-width="1920"
     inkscape:window-height="962"
     inkscape:window-x="0"
     inkscape:window-y="27"
     inkscape:window-maximized="1"
     inkscape:current-layer="layer1" /><defs
     id="defs36976" /><g
     inkscape:label="Layer 1"
     inkscape:groupmode="layer"
     id="layer1"
     transform="translate(-1.8453037,-3.2879737)"><path
       id="path41173"
       style="fill:#000000;stroke-width:0.124906"
       d="m 20.008072,101.18937 -0.243327,0.28712 -0.23584,-0.20031 c -0.269855,-0.22938 -1.887678,-0.71327 -2.384873,-0.71327 -0.182949,0 -0.442116,-0.11213 -0.575756,-0.2492 l -0.242829,-0.2492 -0.866749,0.13235 c -0.476641,0.0727 -0.973045,0.18662 -1.103343,0.25325 -0.130303,0.0666 -0.515455,0.0861 -0.855767,0.0429 -0.923837,-0.1171 -2.320486,0.70516 -2.320486,1.3662 0,0.42798 -1.126206,0.86975 -2.9184489,1.1449 -0.3752377,0.0576 -0.7935539,0.20092 -0.9296426,0.3186 -0.2578389,0.22296 -2.4269077,0.44843 -3.1116109,0.32336 -0.1780324,-0.0325 -0.323693,-0.01 -0.323693,0.0501 0,0.1574 0.5220235,0.56144 0.7579416,0.58664 1.9032034,0.20345 2.3027621,0.38582 1.6923212,0.77312 -0.1557441,0.0988 -0.2780206,0.30399 -0.2780206,0.46669 0,0.26764 0.1303707,0.43122 0.7062758,0.8864 0.1515719,0.1198 0.1913423,0.27461 0.137016,0.53417 -0.042064,0.20102 -0.076619,0.52591 -0.076619,0.72185 0,0.25346 -0.1646549,0.52471 -0.571013,0.93982 l -0.5712596,0.58329 -0.8173339,0.14404 c -0.4494516,0.0791 -1.0404685,0.14455 -1.3134766,0.14547 -1.5849732,0.005 -1.2664428,0.52762 0.4482201,0.73497 0.9242867,0.11176 1.0701164,0.24365 0.9403736,0.85062 -0.1925642,0.90088 -0.053317,2.60202 0.3498976,4.2734 0.2187011,0.90657 0.4784909,2.02113 0.577248,2.47676 0.268,1.23648 0.9380598,2.27931 1.9795763,3.08104 0.1756998,0.13525 0.4276516,0.44835 0.5597802,0.69562 0.2686036,0.50272 0.667491,0.64949 1.4554814,0.53585 0.2626533,-0.0379 0.7630703,0.0104 1.1153203,0.10755 1.018997,0.28089 2.145835,0.0396 2.555574,-0.54729 0.140556,-0.20131 0.327436,-0.36629 0.415283,-0.36653 0.08785,-2e-4 0.159724,-0.0552 0.159724,-0.12234 0,-0.0671 0.07594,-0.12209 0.168707,-0.12209 0.09276,0 0.398458,-0.18809 0.679328,-0.41781 0.322206,-0.26353 0.790439,-0.48717 1.2688,-0.60595 0.526312,-0.13069 0.845056,-0.29158 1.042197,-0.5263 l 0.28401,-0.33816 1.225378,-0.007 1.225383,-0.007 0.407295,0.40849 c 0.791207,0.79316 1.854451,1.01192 2.515644,0.51773 0.1757,-0.13132 0.491951,-0.24044 0.702785,-0.24229 0.210839,-0.002 0.54378,-0.0834 0.739966,-0.18124 l 0.356886,-0.17766 0.494892,0.24634 c 0.272197,0.13557 0.526331,0.3249 0.564774,0.42067 0.08654,0.21548 0.801266,0.11292 1.133788,-0.16264 0.28978,-0.24016 0.294349,-1.03328 0.0085,-1.49569 -0.176897,-0.28615 -0.188275,-0.4047 -0.06389,-0.66557 0.281686,-0.59074 0.19224,-0.84299 -0.432003,-1.22002 -0.844654,-0.51017 -1.121033,-0.92971 -1.029969,-1.56389 0.04052,-0.28234 0.111816,-0.89804 0.158226,-1.36811 0.05122,-0.51876 0.152809,-0.89296 0.258554,-0.95222 0.09582,-0.0537 0.174198,-0.20682 0.174198,-0.34005 0,-0.14743 0.175048,-0.34091 0.447225,-0.49435 0.60736,-0.34242 0.623075,-0.86358 0.03994,-1.32876 l -0.407542,-0.32504 0.164215,-0.37845 c 0.12289,-0.28345 0.131438,-0.52617 0.03419,-0.96605 -0.07144,-0.32309 -0.09828,-0.84793 -0.05965,-1.16636 0.107214,-0.8841 -0.557993,-1.27163 -0.863754,-0.50317 0.04337,-4.13698 -1.208123,-6.27252 -5.348023,-6.04453 z m 4.201253,3.98342 c 0.0034,2.03835 0.246654,4.31362 0.51236,4.78802 0.06703,0.11968 0.1236,1.08979 0.125532,2.15578 0.0064,3.41874 0.224458,4.33318 1.098103,4.60225 0.760622,0.23425 0.932588,0.74148 0.426009,1.25674 l -0.269033,0.27376 0.460704,0.44022 c 0.505356,0.48288 0.517474,0.518 0.336168,0.97368 -0.177782,0.4468 -0.789633,0.33382 -1.833579,-0.33863 -0.282942,-0.18227 -0.476332,-0.21399 -0.89445,-0.14642 -1.37852,0.22277 -1.313008,0.22709 -1.587504,-0.10636 -0.387084,-0.47021 -0.926629,-0.40661 -0.655615,0.0773 0.232354,0.41486 0.03443,0.82726 -0.396811,0.82726 -0.406021,0 -0.695014,-0.33346 -0.566522,-0.65341 0.18533,-0.46143 -0.803358,-0.5606 -4.629987,-0.46454 -1.461731,0.0367 -3.713345,0.90193 -3.371416,1.29561 0.300623,0.34612 -0.791487,0.79912 -1.926665,0.79912 -0.473618,0 -0.879726,0.19513 -0.879726,0.4228 0,0.0936 -0.09021,0.25648 -0.2006533,0.362 -0.4590043,0.43861 -1.1278041,0.18388 -1.3179681,-0.50221 -0.052375,-0.18897 -0.2415008,-0.41167 -0.4205232,-0.49483 -0.4511951,-0.2096 -1.3079615,-1.12297 -1.6506439,-1.75968 -0.5726259,-1.06396 -0.7512475,-7.05137 -0.2408344,-8.07391 0.2128478,-0.4264 0.069979,-0.58749 -0.678574,-0.76549 -0.7486739,-0.17804 -0.6703742,-0.32268 0.3224421,-0.59546 l 0.8550177,-0.2349 0.1385131,-0.37559 c 0.076175,-0.20655 0.1729663,-0.90724 0.2151273,-1.55697 l 0.076614,-1.18139 -0.4659394,-0.186 c -0.5630008,-0.22476 -0.5905866,-0.46325 -0.093092,-0.80175 l 0.3726056,-0.25349 -0.1245319,-0.43139 -0.1247878,-0.4314 0.2949917,-0.24157 c 0.6000489,-0.49138 0.9413492,-0.57365 2.9324245,-0.70802 1.099253,-0.0742 2.159479,-0.19333 2.355926,-0.2647 0.336317,-0.12218 2.155407,-0.2413 4.462275,-0.29213 0.562228,-0.0124 1.131194,-0.0697 1.264312,-0.12734 0.155576,-0.0674 0.433616,-0.0371 0.778651,0.0851 2.22257,-0.34252 4.649212,-1.00091 5.30108,2.62795 z M 15.263859,3.2882017 c -0.151377,0.00378 -0.317448,0.055089 -0.482415,0.165499 -0.184429,0.1234477 -0.42749,0.1513703 -0.824823,0.094435 -0.436137,-0.062492 -0.700902,-0.020803 -1.17322,0.1850533 -0.335539,0.1462392 -0.782695,0.3029971 -0.99353,0.3484057 l -0.383337,0.082511 v 0.6050006 c 0,0.380684 -0.106554,0.8114477 -0.287502,1.162307 -0.158127,0.3066044 -0.287503,0.6518214 -0.287503,0.7671611 0,0.115335 -0.134148,0.4687753 -0.298234,0.7855232 C 10.369211,7.800845 10.104538,8.4171369 9.9453131,8.8536357 9.3968522,10.357194 9.4202054,10.318801 9.0526079,10.318801 c -0.6827975,0 -0.9000169,0.691792 -0.3294299,1.049033 0.556655,0.348516 -0.102246,2.618026 -0.7309852,2.517776 -0.1491079,-0.02378 -0.2828171,0.108665 -0.4152814,0.411601 -0.2531021,0.578825 -0.2490357,0.905474 0.011228,0.905474 0.1528942,0 0.185632,0.07139 0.1260319,0.274718 -0.044286,0.151099 -0.1133276,0.521967 -0.1534844,0.824156 -0.1156563,0.870349 -0.1653763,0.957448 -0.3840852,0.673442 L 6.9899251,16.732476 6.9158031,17.00314 6.8419311,17.273805 6.5641616,16.879373 6.2863926,16.484705 5.3964328,16.44607 c -2.443033,-0.106055 -2.7916255,0.80091 -1.1802074,3.070313 0.2779984,0.391515 0.6148652,0.948315 0.7487043,1.237425 l 0.2433288,0.525829 -0.1916683,0.519389 c -0.1054495,0.285751 -0.3100325,0.701873 -0.4542139,0.92479 -0.204122,0.31559 -0.2321675,0.458779 -0.1270301,0.646495 0.2061759,0.368114 0.161987,0.887472 -0.1205414,1.416994 -0.9979294,1.870347 1.5800137,6.21549 4.0250338,6.784264 1.0992317,0.255705 2.0713334,-0.07535 2.4824534,-0.845384 0.143739,-0.269226 0.391481,-0.577432 0.550547,-0.685129 l 0.28925,-0.196023 -0.263294,-0.208898 C 11.253898,29.521173 11.031834,29.097328 10.905398,28.694414 10.778962,28.291496 10.541896,27.687114 10.37856,27.351344 10.215227,27.01558 9.9645038,26.454287 9.8212757,26.103903 9.6780486,25.753519 9.3866529,25.155159 9.1738959,24.774189 8.4340265,23.449358 8.2103893,23.49608 15.196224,23.510293 l 5.735574,0.01168 0.199155,0.290696 c 0.109545,0.159896 0.283447,0.609401 0.386332,0.998954 0.102885,0.389554 0.329826,1.101101 0.504377,1.581301 0.174549,0.480204 0.397952,1.311 0.496391,1.846005 0.293095,1.592904 1.022708,2.965605 1.569783,2.953699 0.167593,-0.0036 0.141127,-0.04834 -0.10407,-0.175755 -0.455221,-0.236545 -0.92075,-1.350204 -1.27704,-3.055047 -0.156335,-0.748073 -0.938172,-3.343857 -1.140027,-3.785012 -0.157344,-0.343882 -0.349254,-1.017767 -0.445229,-1.563177 -0.106849,-0.607202 0.418915,-0.554655 -6.232213,-0.621452 -6.1869093,-0.06213 -6.1021899,-0.05523 -6.1021899,-0.493635 0,-0.407763 1.2081268,-1.054721 1.5702829,-0.840849 0.218577,0.129078 9.472702,0.182733 9.666022,0.05604 l 0.183433,-0.120189 -0.166462,-0.528213 c -0.222575,-0.706268 -0.220561,-0.701578 -0.578998,-1.260796 -0.17217,-0.268612 -0.315656,-0.554232 -0.318699,-0.634809 -0.003,-0.08058 -0.17013,-0.382766 -0.371357,-0.671534 -0.430545,-0.617847 -0.583003,-1.196647 -0.315205,-1.196647 0.09788,0 0.211114,0.08241 0.251565,0.183146 0.09255,0.230443 0.429507,0.241325 0.429507,0.01383 0,-0.252041 -0.753652,-1.744077 -0.966078,-1.912537 -0.101171,-0.08024 -0.184297,-0.345184 -0.184681,-0.588784 -9.66e-4,-0.600007 -0.222165,-1.320497 -0.428758,-1.396247 -0.294077,-0.107832 -0.592724,-0.891411 -0.592724,-1.555308 0,-0.687533 -0.715066,-2.3443733 -1.067652,-2.4736581 -0.09774,-0.035838 -0.218075,-0.2755539 -0.267288,-0.5327442 -0.25788,-1.3477106 -1.088294,-1.2280498 -1.09211,0.1573906 -3.92e-4,0.1423264 -0.222916,0.5269265 -0.494644,0.85468 -0.271727,0.3277489 -0.535758,0.7232549 -0.586485,0.878765 -0.05073,0.1555057 -0.252302,0.4576937 -0.447974,0.6715347 -0.195673,0.213835 -0.395354,0.562702 -0.443733,0.775268 -0.04838,0.212567 -0.256891,0.555384 -0.463448,0.761915 -0.206557,0.20653 -0.3756,0.434772 -0.3756,0.507227 0,0.07245 -0.161336,0.361491 -0.358629,0.642203 -0.357865,0.50918 -1.046938,1.904326 -1.046938,2.119768 0,0.0625 -0.142202,0.297692 -0.315953,0.522728 -0.5123279,0.663541 -1.1195809,2.31547 -1.0262245,2.79154 0.045387,0.231454 0.019274,0.475548 -0.060645,0.56756 -0.077117,0.08879 -0.1659959,0.290622 -0.1976577,0.448564 -0.031662,0.157947 -0.144577,0.348254 -0.2508159,0.422809 -0.106238,0.07456 -0.1931659,0.200696 -0.1931659,0.280442 0,0.07975 -0.1356894,0.266098 -0.3014782,0.413986 -0.1657892,0.147891 -0.4499437,0.679768 -0.6314074,1.1821 -0.1814652,0.502331 -0.3881738,0.931894 -0.4594543,0.954599 -0.1949316,0.06209 -1.0002959,1.172832 -1.2281244,1.693858 -1.1864146,2.713232 2.1841811,7.41648 4.0425033,5.640789 L 9.9702699,30.066811 9.9088759,28.953392 C 9.864136,28.141997 9.7731702,27.700143 9.5729571,27.32559 9.2526239,26.726308 9.2236207,26.435617 9.4838613,26.435617 c 0.2161637,0 1.1695037,1.869332 1.2965067,2.542099 0.04666,0.247149 0.129813,0.533218 0.18493,0.635766 0.145519,0.270749 -0.51009,1.489526 -0.900442,1.673823 -1.830959,0.86446 -4.5320638,-1.17838 -5.4765221,-4.14176 -0.3560469,-1.117156 0.1932891,-2.94772 1.2049146,-4.01585 0.1005464,-0.106161 0.1826841,-0.284825 0.1826841,-0.397054 0,-0.255696 -0.4229475,-0.269616 -0.6388944,-0.02099 -0.4286145,0.493481 -0.3659709,-0.244923 0.07537,-0.888542 L 5.6242916,21.51405 5.7425867,21.716035 C 5.9634782,22.093199 6.0920697,21.92005 6.023101,21.338059 5.966346,20.859123 6.015131,20.651753 6.3041149,20.147612 6.4965873,19.811843 6.735685,19.386035 6.8354453,19.20136 7.0251533,18.850186 7.183683,18.780514 7.3186088,18.98912 7.5807618,19.394433 7.8287259,18.859176 7.8287259,17.887862 V 16.8932 l 0.2418313,-0.169315 c 0.132954,-0.0931 0.3021306,-0.188658 0.3760993,-0.212239 0.073969,-0.02356 0.171346,-0.426772 0.2163752,-0.896173 0.049345,-0.514413 0.2106316,-1.117619 0.4060475,-1.518345 0.1783178,-0.365667 0.396422,-1.049465 0.4846611,-1.519536 0.088239,-0.470075 0.2343243,-1.028665 0.3246884,-1.241241 0.090364,-0.21258 0.2336643,-0.816961 0.3184493,-1.343068 0.09835,-0.6103205 0.264429,-1.1134411 0.458456,-1.3902853 0.167256,-0.2386443 0.304218,-0.595781 0.304473,-0.7936313 0.0012,-0.902264 1.08456,-3.0570371 1.867269,-3.7137075 l 0.471933,-0.3958613 0.438491,0.067964 c 0.446105,0.069144 1.411385,0.7367021 1.762201,1.2185864 0.106326,0.1460458 0.394411,0.5401342 0.640142,0.8759039 0.245731,0.3357646 0.538283,0.8017694 0.650125,1.035679 0.111841,0.2339091 0.311964,0.5574725 0.44473,0.7187514 0.132766,0.1612785 0.241576,0.4093044 0.241832,0.5513447 2.62e-4,0.1420352 0.111614,0.4327189 0.247571,0.6457793 0.135959,0.2130599 0.334178,0.6526085 0.440488,0.9767765 0.106312,0.3241632 0.339965,0.9625642 0.519102,1.4189022 0.179136,0.456341 0.325686,1.043791 0.325686,1.305389 0,0.570533 0.103004,0.650295 0.617681,0.47885 0.614262,-0.204611 1.107334,0.07303 1.107334,0.623363 v 0.42567 l -0.479171,0.223686 c -0.540773,0.252443 -0.594102,0.432733 -0.223364,0.753329 0.408264,0.353043 1.421959,2.270883 1.379364,2.609587 -0.05683,0.451926 -0.314385,0.448539 -0.562028,-0.0074 -0.120868,-0.222558 -0.243043,-0.339305 -0.27128,-0.259457 -0.02824,0.07985 0.04983,0.292606 0.173449,0.472888 0.129996,0.18958 0.212156,0.508691 0.194663,0.756907 -0.01664,0.236045 0.03963,0.727553 0.125034,1.092196 l 0.155231,0.662949 0.472932,0.230602 c 0.718932,0.350551 0.889129,1.066944 0.312958,1.31779 -0.401832,0.174947 -0.432356,0.73943 -0.06589,1.217632 0.139438,0.181953 0.368968,0.852724 0.510117,1.490682 0.69497,3.141123 1.13294,4.107209 1.329449,2.932954 0.161897,-0.967435 0.495271,-0.435947 0.779401,1.242672 0.178156,1.052529 0.324866,1.513486 0.319448,1.003244 -0.0024,-0.223559 -0.225249,-1.720829 -0.489154,-3.286365 -0.06792,-0.402922 -0.154076,-1.205888 -0.191668,-1.784478 l -0.06838,-1.052134 0.326185,-0.14189 c 0.383849,-0.167116 0.393621,-0.10649 -0.342158,-2.129306 L 23.59394,19.94396 23.52631,18.702718 c -0.134493,-2.468283 0.395432,-4.881679 0.99378,-4.528323 0.05847,0.03453 0.213308,0.008 0.344155,-0.0589 0.546516,-0.279483 1.691035,0.896434 1.872759,1.924222 0.05094,0.288104 0.193427,0.797535 0.316702,1.132022 l 0.224112,0.6081 0.07287,-0.587831 c 0.08036,-0.648359 -0.08426,-1.449023 -0.623172,-3.031442 L 26.372131,13.117257 25.773667,12.582128 C 25.44445,12.287882 24.94346,11.980911 24.660344,11.899863 l -0.514859,-0.147375 -0.483414,0.229409 c -1.019808,0.483961 -1.278903,1.027399 -1.749472,3.668875 -0.187771,1.054027 -0.258351,1.141399 -0.558035,0.691804 -0.126978,-0.190499 -0.268769,-0.373714 -0.315204,-0.407308 -0.125309,-0.09061 -0.496641,-0.978659 -0.496641,-1.187824 0,-0.09962 0.143752,-0.344193 0.319447,-0.543714 0.563998,-0.640468 0.315168,-1.202054 -0.714763,-1.613255 C 19.551446,12.352541 19.43854,12.200399 19.364259,11.535002 19.303789,10.993307 18.407816,8.989064 18.058768,8.6146878 17.962128,8.5110376 17.818795,8.1951964 17.74007,7.9126295 17.66134,7.6300631 17.537906,7.3640537 17.465794,7.3214601 17.393684,7.2788757 17.190846,6.9330667 17.015074,6.5531071 16.839307,6.1731521 16.562423,5.7248964 16.399643,5.5570139 16.236865,5.3891318 16.003162,5.1003609 15.880292,4.9152886 L 15.656679,4.5788064 15.811411,4.2222922 c 0.229455,-0.529321 -0.09342,-0.9454713 -0.547552,-0.9340905 z m -1.306364,36.0944053 -1.916683,0.0198 -0.575003,0.257546 c -0.82417,0.36915 -1.6763071,0.831143 -1.9191795,1.041167 -0.1151049,0.09953 -0.2660441,0.180998 -0.335419,0.180998 -0.069375,0 -0.2483538,0.206041 -0.3978104,0.457865 -0.1494566,0.251824 -0.5624798,0.747599 -0.9179119,1.101735 -0.3554321,0.354136 -0.6463816,0.701355 -0.6463816,0.771452 0,0.07187 -0.1114151,0.09354 -0.2555594,0.04984 -0.1912452,-0.058 -0.2561031,-0.02155 -0.2575519,0.144514 -0.00106,0.122045 -0.054881,0.302096 -0.1197928,0.400154 L 6.4981566,43.985814 6.266558,43.78669 C 5.8298561,43.411223 5.4092372,43.400062 4.9693029,43.75379 4.4790913,44.147935 4.4556459,44.470585 4.8971779,44.747026 L 5.228854,44.954492 5.6531197,44.73605 c 0.2333414,-0.12014 0.4867662,-0.181442 0.5630254,-0.136403 0.2224724,0.131383 0.1598264,0.410756 -0.1103087,0.492681 -0.184698,0.05601 -0.3669203,0.427731 -0.7077753,1.442987 -0.2524985,0.752084 -0.5322586,1.422336 -0.6216742,1.489489 -0.089416,0.06715 -0.2004231,0.218252 -0.2465732,0.33577 -0.046145,0.117513 -0.1918369,0.213669 -0.3239394,0.213669 -0.2918265,0 -0.6801287,0.787078 -0.783145,1.587261 -0.055822,0.433592 -0.1174934,0.54206 -0.2922442,0.514141 -0.1828691,-0.02926 -0.2078561,0.02903 -0.1437511,0.33529 0.047208,0.225548 0.013286,0.444737 -0.08635,0.559453 -0.124088,0.142871 -0.1280115,0.222992 -0.015971,0.330043 0.2256979,0.215663 0.1772027,0.423163 -0.1162987,0.4965 -0.2103462,0.05256 -0.2560428,0.146226 -0.2236131,0.458816 l 0.040678,0.393001 0.7027841,0.168838 c 0.3865308,0.09298 0.7720691,0.257204 0.8567673,0.36486 l 0.1539833,0.195783 -0.4095412,0.289743 c -0.2252551,0.159341 -0.5132176,0.324159 -0.6398927,0.366291 -0.4158673,0.13839 -0.2112546,0.572933 0.3266849,0.693953 0.538475,0.121141 1.0560362,0.694452 1.0184873,1.127965 -0.033463,0.386333 0.231587,0.577035 1.8240926,1.313259 0.6875724,0.317869 1.1347155,0.72034 1.2680563,1.141324 0.1092274,0.344847 0.3578657,0.432845 1.3002483,0.460487 0.5756352,0.01689 0.8694099,0.09058 1.1245536,0.28235 0.212698,0.159867 0.625253,0.289821 1.073642,0.338151 0.400476,0.04315 1.08857,0.188999 1.529353,0.32408 l 0.801614,0.245627 -0.328933,0.247057 c -0.416541,0.312857 -0.359581,0.622314 0.133022,0.723044 1.01253,0.207047 3.292479,-0.02617 3.806664,-0.389425 0.279156,-0.197214 0.54464,-0.263795 1.012245,-0.253734 l 0.633903,0.01384 0.339664,-0.350791 c 0.186768,-0.192885 0.42003,-0.445955 0.518604,-0.562314 0.14186,-0.167449 0.305419,-0.19732 0.784639,-0.143083 0.722286,0.08174 1.093901,-0.110227 0.984795,-0.508895 -0.09613,-0.35128 0.04124,-0.408313 0.470937,-0.195308 0.406055,0.201298 1.169082,0.235899 1.284027,0.05819 0.04226,-0.06533 0.303815,-0.177278 0.581493,-0.248727 1.111969,-0.286107 1.783855,-2.574367 1.361144,-4.636351 l -0.187426,-0.91358 0.497142,-0.489342 c 0.273383,-0.269092 0.496891,-0.549854 0.496891,-0.624082 0,-0.07422 0.114999,-0.234486 0.255555,-0.356032 0.140556,-0.121547 0.255559,-0.29481 0.255559,-0.385134 0,-0.09032 0.08625,-0.164306 0.191666,-0.164306 0.184886,0 0.244814,-0.136558 0.201156,-0.457865 -0.0114,-0.08394 0.05507,-0.152622 0.147491,-0.152622 0.238888,0 0.512186,-1.427301 0.334173,-1.745129 -0.07339,-0.131053 -0.101355,-0.391608 -0.06214,-0.579006 0.04598,-0.219627 0.005,-0.393181 -0.115052,-0.488387 -0.102437,-0.08123 -0.18618,-0.311044 -0.18618,-0.510569 0,-0.260089 -0.07233,-0.380846 -0.255554,-0.426624 -0.290071,-0.07248 -0.319612,-0.255917 -0.111309,-0.692758 0.329372,-0.690755 -0.367602,-2.260127 -1.015742,-2.286938 -0.225965,-0.0094 -0.264697,-0.03355 -0.113555,-0.07106 0.507782,-0.126027 0.07997,-0.687764 -0.67658,-0.888305 -0.485913,-0.128805 -0.893953,-0.500196 -0.893953,-0.813663 0,-0.153794 -0.08411,-0.180951 -0.383336,-0.123766 l -0.383337,0.07321 V 41.97791 c 0,-0.29192 -0.323645,-0.321205 -0.43674,-0.03959 l -0.08111,0.20127 -0.292244,-0.262322 c -0.160826,-0.14436 -0.435267,-0.262553 -0.609948,-0.262553 -0.174681,0 -0.372219,-0.04615 -0.438986,-0.102543 -0.06676,-0.05639 -0.322795,-0.175995 -0.568768,-0.265894 -0.245978,-0.0899 -0.653094,-0.315908 -0.904684,-0.501982 -0.280571,-0.207504 -0.811698,-0.415152 -1.373622,-0.537275 -0.503899,-0.109511 -0.916164,-0.239249 -0.916164,-0.288312 0,-0.30253 -3.513923,1.238473 -3.513923,-0.536084 z m 11.49597,29.61704 c 0.129697,0.17815 -2.555078,1.637054 -2.555078,1.841711 0,0.07382 -0.242936,0.394247 -0.539816,0.712074 l -0.539815,0.578051 -0.349395,-0.191727 -0.349647,-0.191731 -0.164964,0.2027 c -0.231208,0.284095 -1.493552,0.512582 -1.938893,0.350791 -0.260283,-0.09456 -0.459888,-0.08051 -0.803112,0.05652 -0.251193,0.100291 -0.578943,0.183162 -0.728487,0.183623 -0.149543,4.62e-4 -0.587988,0.141764 -0.974314,0.313587 -0.386322,0.171828 -1.047583,0.358876 -1.469458,0.415655 -0.421881,0.05678 -1.018973,0.171394 -1.326705,0.254689 -0.429163,0.11618 -0.654456,0.118603 -0.967326,0.01048 -0.592679,-0.204787 -0.718254,-0.18061 -1.153502,0.222492 l -0.392319,0.363431 -0.415535,-0.241335 c -0.267242,-0.155294 -0.44271,-0.371197 -0.491646,-0.605 -0.04182,-0.199918 -0.155363,-0.426292 -0.252314,-0.503172 -0.096946,-0.07688 -0.1761974,-0.239042 -0.1761974,-0.36033 0,-0.344989 -0.3601457,-0.604284 -0.8395446,-0.604284 -0.3195253,0 -0.4382425,0.05393 -0.4382425,0.198884 0,0.273531 -0.8297554,0.142543 -1.6673634,-0.263033 C 6.5765436,71.577512 6.1930863,71.443081 6.0677624,71.445389 l -0.2278529,0.0037 0.2236126,0.162161 c 0.1229991,0.0892 0.2236127,0.289512 0.2236127,0.445221 0,0.155713 0.069645,0.467228 0.1547303,0.692042 l 0.1547352,0.408742 -0.3381669,0.299517 c -0.2363391,0.209327 -0.3628839,0.475235 -0.4202721,0.882108 -0.045155,0.320255 -0.096367,0.636001 -0.1138008,0.701816 -0.017434,0.06582 0.086292,0.210998 0.2306007,0.322655 0.1571016,0.121555 0.2710087,0.365576 0.2837585,0.608096 0.014633,0.27846 0.139561,0.506103 0.3998049,0.728291 0.4220832,0.360362 0.513263,0.619265 0.6850654,1.945209 0.1626603,1.255349 0.1353788,2.364735 -0.079613,3.235574 -0.099472,0.402918 -0.1972343,0.89741 -0.217373,1.098874 L 6.9899,83.345677 6.6065634,83.385733 c -0.2108242,0.02201 -0.4356008,0.08823 -0.499388,0.147374 -0.1959834,0.181704 0.1531222,0.455189 0.5001366,0.391806 0.3996504,-0.073 0.4209193,0.170504 0.063637,0.730437 -0.1402952,0.219872 -0.2552986,0.583505 -0.2555545,0.808176 -2.608e-4,0.224676 -0.097193,0.565014 -0.2153785,0.756191 l -0.2148761,0.347455 0.2752731,0.220822 c 0.4472349,0.358769 0.4065324,1.8689 -0.050415,1.8689 -0.282411,0 -0.8173338,0.370883 -0.8173338,0.566606 0,0.09468 -0.1725025,0.2051 -0.3833348,0.245386 -0.2108388,0.04029 -0.3833365,0.120518 -0.3833365,0.178377 0,0.05786 -0.2062847,0.187633 -0.4584586,0.288312 -0.2521739,0.100683 -0.6871662,0.356097 -0.9665781,0.567561 l -0.5081196,0.384413 -0.3137058,-0.16049 c -0.2269581,-0.11611 -0.352491,-0.123429 -0.4534649,-0.02695 -0.1878313,0.17948 -0.028204,0.398724 0.2902444,0.398724 h 0.2580561 l -0.073625,0.396813 c -0.055983,0.301427 -0.045348,0.338114 0.044672,0.152621 l 0.1185482,-0.244195 0.017193,0.244195 0.016951,0.244196 0.1098117,-0.259456 c 0.1210968,-0.286121 0.7768875,-0.77837 1.037455,-0.77837 0.1287625,0 0.1314911,0.03272 0.012218,0.14666 -0.2304897,0.220241 -0.1876864,0.3354 0.1737004,0.466688 0.1799255,0.06537 0.2915821,0.173817 0.2480689,0.241095 -0.1947036,0.30103 1.0771464,-0.269392 2.2538481,-1.010881 0.7387253,-0.465503 2.0356322,-1.107896 2.5141473,-1.245294 0.1627714,-0.04674 0.566807,-0.313609 0.897947,-0.593075 1.619509,-1.366771 3.014163,-1.899897 5.762529,-2.20276 l 1.476943,-0.162635 0.602207,0.168838 c 0.331219,0.09286 0.677956,0.263508 0.770667,0.37917 0.09272,0.115658 0.750475,0.748236 1.46147,1.405544 l 1.292763,1.194979 0.850281,-0.08323 0.850526,-0.08323 0.438243,0.406116 c 0.563846,0.522204 0.749505,0.367136 0.204145,-0.170508 l -0.412033,-0.406351 0.05615,-0.717082 c 0.08234,-1.051454 0.69795,-0.931324 2.102109,0.410408 1.461533,1.39654 1.227049,2.857727 -0.304723,1.898701 -0.174256,-0.109197 -0.357325,-0.15958 -0.406793,-0.112317 -0.103567,0.09897 0.343779,0.459767 0.99228,0.800308 0.245741,0.12917 0.355239,0.237611 0.242829,0.240379 -0.296575,0.0078 -1.198763,-0.604211 -2.746742,-1.863413 l -0.421021,-0.342682 -0.763679,0.08251 -0.763679,0.08251 -0.503382,-0.472411 C 19.489152,88.24566 18.837883,87.701168 18.188213,87.27495 l -0.685312,-0.449517 -0.656364,0.0023 c -3.043258,0.01071 -5.073378,0.657054 -6.9674446,2.220641 -0.3085044,0.254676 -0.7712901,0.517192 -1.028221,0.583298 -0.256931,0.06611 -1.1544192,0.512115 -1.9945481,0.991088 -1.9017002,1.084186 -2.533265,1.351579 -2.9753469,1.259839 -0.2330348,-0.04834 -0.2871342,-0.03442 -0.1707061,0.04412 0.1374796,0.09275 0.1292599,0.130212 -0.042451,0.193162 -0.3426197,0.12563 -0.8948417,0.09001 -1.0606653,-0.06844 -0.1065374,-0.101786 -0.1534844,-0.104994 -0.1534844,-0.01024 0,0.07498 0.071877,0.166249 0.159724,0.202936 0.7003892,0.292613 2.7708784,-0.382932 4.1241107,-1.345686 0.2126836,-0.151311 1.0057111,-0.504432 1.762199,-0.784572 1.0902891,-0.403753 1.444224,-0.595461 1.7072977,-0.925029 l 0.331922,-0.415655 0.317454,0.198649 0.317699,0.198884 0.33567,-0.254689 c 1.389806,-1.054518 1.964819,-1.261694 3.530141,-1.274385 1.245695,-0.01011 1.87372,0.217601 2.241622,0.813423 0.195631,0.316826 0.376479,0.441608 0.733229,0.505558 0.303221,0.05436 0.687485,0.276213 1.068151,0.616445 0.836773,0.747898 1.981509,1.155219 2.218161,0.789338 0.04342,-0.06715 0.251894,-0.122095 0.463201,-0.122095 0.211308,0 0.489257,-0.0538 0.61768,-0.119475 0.174425,-0.0892 0.314773,-0.0583 0.554792,0.122101 0.176718,0.132829 0.369814,0.242299 0.429003,0.24276 0.05919,4.62e-4 0.444429,0.276471 0.856018,0.613108 1.100933,0.900447 2.031402,1.096608 2.522135,0.531553 l 0.148496,-0.170984 0.305722,0.315498 c 0.330291,0.34085 0.523468,0.342853 0.738219,0.0079 0.157386,-0.245497 -0.205791,-0.596348 -0.504126,-0.486956 -0.107299,0.03936 -0.263508,-0.142105 -0.428008,-0.497451 -0.631314,-1.363725 -2.576965,-3.292699 -4.042007,-4.007026 -0.988079,-0.481774 -2.236127,-1.525059 -2.236127,-1.869375 0,-0.08031 -0.08625,-0.214496 -0.19167,-0.298091 -0.105417,-0.0836 -0.191666,-0.313628 -0.191666,-0.51128 0,-0.197652 -0.06336,-0.472531 -0.140759,-0.610722 -0.0774,-0.138192 -0.160067,-0.64273 -0.183683,-1.121293 -0.02362,-0.478562 -0.137441,-1.117429 -0.253062,-1.419618 -0.157005,-0.410347 -0.175193,-0.603089 -0.07187,-0.761433 0.07609,-0.116609 0.139556,-0.418798 0.141005,-0.671535 0.0029,-0.514049 0.356876,-1.348594 0.679821,-1.603957 0.116553,-0.09216 0.211886,-0.210134 0.211886,-0.262317 0,-0.156406 0.877968,-1.355331 1.513879,-2.067305 l 0.59447,-0.665572 0.0062,-1.043789 0.0062,-1.043548 0.820082,-1.159922 c 1.008272,-1.426097 1.688401,-1.62206 0.981801,-0.282585 -0.26446,0.501345 -0.373987,1.015168 -0.216378,1.015168 0.07335,0 0.193356,-0.150979 0.266787,-0.33553 0.07343,-0.184546 0.223565,-0.430338 0.333425,-0.546333 0.144207,-0.152267 0.1815,-0.365253 0.134268,-0.765495 -0.03598,-0.304897 -0.01487,-0.583999 0.04689,-0.620501 0.252203,-0.148939 0.113897,-0.540376 -0.190918,-0.540376 -0.319506,0 -1.357902,0.956691 -1.357902,1.251021 0,0.08664 -0.135703,0.34875 -0.301478,0.582586 -0.165775,0.233841 -0.346362,0.561465 -0.401307,0.728051 -0.05494,0.166586 -0.221116,0.459656 -0.36936,0.651263 l -0.269531,0.348404 -0.64289,-0.07679 -0.642885,-0.07678 -0.454214,0.338151 c -0.249751,0.18593 -0.632212,0.559338 -0.850029,0.829639 -1.631051,2.024078 -2.620433,2.628188 -4.305052,2.628188 -0.697333,0 -1.095182,0.06057 -1.352909,0.206041 L 13.71033,77.22574 12.969364,76.874709 C 12.251149,76.534454 11.331991,75.722231 9.4851412,73.796529 8.7111997,72.98953 8.2968581,72.759363 7.8841633,72.907033 c -0.4397638,0.157352 -1.4694578,1.303351 -1.4694578,1.635433 0,0.357431 0.4875076,0.901052 3.0577101,3.409419 1.6874734,1.646869 2.6923394,2.813611 2.6923394,3.125873 0,0.263245 -0.541269,1.485876 -0.743212,1.67884 -0.117471,0.112243 -0.271433,0.298861 -0.342156,0.414934 -0.162602,0.266873 -1.7274996,2.045671 -3.0287626,3.442566 l -0.997023,1.070259 v 0.482429 0.482424 l -0.7941237,0.503888 c -0.4367502,0.277126 -1.1698521,0.685162 -1.6291797,0.906667 -0.4593327,0.22151 -1.1081869,0.633081 -1.4420073,0.914536 -0.3338252,0.28145 -0.6069493,0.461787 -0.6069493,0.400634 0,-0.235142 1.5722138,-1.311339 2.4584975,-1.682891 0.2290974,-0.09604 0.7327833,-0.387067 1.119312,-0.646731 l 0.7027798,-0.472176 0.067636,-0.548959 c 0.055695,-0.452042 0.2201064,-0.725545 0.9321346,-1.547916 1.0106081,-1.167227 1.4184928,-1.787534 1.2980031,-1.97382 -0.047473,-0.07341 -0.013377,-0.301459 0.075619,-0.506753 L 9.3970467,83.622485 9.094072,83.404044 C 8.8492586,83.227536 8.8206968,83.151865 8.945079,83.008657 9.032101,82.908472 9.0672203,82.677806 9.025687,82.478059 l -0.07362,-0.353171 0.7439604,-0.26852 C 10.105146,81.708702 10.570745,81.553339 10.73074,81.5113 c 0.159999,-0.04204 0.377913,-0.203592 0.484412,-0.358899 l 0.19366,-0.28235 -0.269531,-0.494109 c -0.148244,-0.271764 -0.668032,-0.889685 -1.1552501,-1.373116 -0.487213,-0.483431 -0.88597,-0.91855 -0.88597,-0.967 0,-0.04845 -0.5796823,-0.686611 -1.288267,-1.418187 -1.9313791,-1.994019 -1.939111,-2.025869 -0.7991174,-3.300914 0.9464201,-1.058541 1.4249014,-0.90855 3.4230765,1.071924 2.219798,2.200139 3.318693,2.457818 3.779209,0.88616 0.373224,-1.273757 2.67717,-2.02682 3.510176,-1.147282 0.169788,0.179272 0.370635,0.227472 0.865749,0.208183 l 0.644638,-0.02506 0.660604,-0.636237 c 0.76039,-0.732214 1.209016,-0.933133 1.851549,-0.829404 l 0.456208,0.07369 0.28426,-0.367482 c 0.156363,-0.202091 0.284377,-0.41074 0.284507,-0.463828 0.0024,-0.87441 1.942477,-2.982914 2.515147,-2.733592 l 0.320197,0.139507 -0.08635,0.71088 -0.08635,0.711119 0.404297,0.160015 c 0.763153,0.302045 0.771227,1.220734 0.01072,1.220734 -0.199755,0 -0.434852,-0.08242 -0.522342,-0.183148 -0.221522,-0.255049 -0.351303,-0.228903 -0.454716,0.09157 -0.04875,0.151099 -0.41213,0.736099 -0.807352,1.299904 -0.395222,0.563809 -0.837371,1.208676 -0.982549,1.433213 -0.145178,0.224537 -0.378821,0.532605 -0.519353,0.68441 -0.489507,0.528779 -1.197179,1.757164 -1.197179,2.078273 0,0.07013 -0.141782,0.414261 -0.315203,0.764539 l -0.315454,0.636717 0.128777,0.412794 c 0.07077,0.227006 0.11623,1.277808 0.100825,2.335104 l -0.0282,1.922315 0.270781,0.275433 c 0.216185,0.21995 0.256598,0.375405 0.2009,0.771932 l -0.06963,0.496495 0.408044,0.39014 c 0.224493,0.214643 0.967916,0.742578 1.65189,1.173516 1.849887,1.165515 3.845097,3.278971 3.845097,4.073081 0,0.06383 0.169334,0.148607 0.376348,0.188155 0.502189,0.09597 0.696482,0.445789 0.440986,0.794346 -0.229988,0.313753 -0.644431,0.339839 -0.966829,0.06105 -0.190744,-0.164952 -0.286024,-0.175377 -0.521097,-0.05771 l -0.287752,0.144038 0.265793,-0.04746 c 0.146091,-0.02607 0.372509,0.02755 0.503377,0.118999 0.36397,0.254302 0.782523,0.198935 1.061911,-0.140457 0.32972,-0.400533 0.220773,-0.77568 -0.284507,-0.97964 -0.289042,-0.116669 -0.51363,-0.375599 -0.827819,-0.954125 -0.237135,-0.436642 -0.681428,-1.03143 -0.987537,-1.321842 -0.306114,-0.290412 -0.557834,-0.583408 -0.559283,-0.651027 -0.0014,-0.06762 -0.203744,-0.299387 -0.449722,-0.515097 -0.245973,-0.215704 -0.448525,-0.489937 -0.449973,-0.609531 -0.0043,-0.327321 -0.40422,-0.743206 -0.757937,-0.788144 l -0.31346,-0.03983 -0.140754,-0.732582 c -0.07744,-0.402923 -0.21123,-0.855564 -0.297237,-1.005874 -0.797374,-1.393462 -1.110471,-4.602529 -0.471933,-4.836665 0.154919,-0.05681 0.196805,-0.305442 0.202648,-1.204753 0.0087,-1.337431 0.328557,-2.646559 0.780399,-3.193604 0.173343,-0.209857 0.352008,-0.476125 0.397067,-0.591645 0.04506,-0.115515 0.228089,-0.244966 0.406793,-0.287837 l 0.324939,-0.07798 V 73.75597 73.289042 l 0.346401,-0.03862 c 0.247942,-0.02764 0.367298,-0.125349 0.420272,-0.343873 0.05316,-0.219309 0.172425,-0.316148 0.423266,-0.344113 0.792241,-0.08825 0.924065,-1.089645 0.209888,-1.594179 l -0.377595,-0.266849 v -0.660801 c 0,-0.683828 0.247907,-1.041167 -0.25606,-1.041167 z M 13.522749,39.489197 c 1.2223,0.175192 2.71368,0.189512 3.756998,0.601659 0.210834,0.08329 0.613344,0.219701 0.894451,0.303098 0.607799,0.180319 2.891056,1.469014 3.486467,1.967862 0.230847,0.193411 0.475227,0.351746 0.543061,0.351746 0.06783,0 0.242737,0.11414 0.388577,0.253494 0.211717,0.202318 0.361053,0.237754 0.740719,0.176471 0.508323,-0.08206 0.7975,0.102723 0.959339,0.612393 0.04342,0.136738 0.369172,0.455548 0.723749,0.708493 0.873003,0.622774 0.93427,0.81439 0.930889,2.919364 -0.0014,0.990516 0.04588,1.800935 0.105316,1.800935 0.05946,0 0.108063,-0.05832 0.108063,-0.129728 0,-0.07293 0.182017,-0.113079 0.415283,-0.09157 l 0.415279,0.03816 0.03917,0.449277 c 0.06535,0.75046 -1.179431,2.768627 -2.374645,3.850113 l -0.703282,0.636242 0.161222,0.549914 c 0.203355,0.69363 0.113477,0.924549 -0.359127,0.924549 h -0.369611 l 0.05865,0.29332 c 0.04494,0.224758 -0.0096,0.313794 -0.233846,0.381792 -0.160893,0.0488 -0.574172,0.301593 -0.918409,0.561599 -0.344238,0.260005 -0.675962,0.47265 -0.737224,0.47265 -0.06126,0 -0.170884,0.211127 -0.243577,0.469075 -0.182587,0.647921 -0.456971,0.832334 -1.347172,0.905472 -0.736663,0.06053 -1.035832,0.163448 -2.875022,0.989653 l -0.830567,0.372969 -1.661123,0.03433 C 11.865627,59.948974 8.7121221,58.678068 6.8300676,56.762602 6.4255655,56.35092 5.9535174,55.994015 5.7531822,55.948699 5.3271924,55.852358 4.8645318,55.474211 4.6176471,55.020809 L 4.4379582,54.691241 4.6441013,54.58083 C 4.9201682,54.432966 4.7842357,54.045636 4.2557735,53.475043 3.5082649,52.667942 3.4154779,52.47048 3.4184721,51.69104 3.4220421,50.757141 3.7043497,50.179492 4.5871999,49.298699 4.9619401,48.924835 5.3328636,48.48529 5.4115231,48.321926 5.812747,47.48866 6.2867568,46.255203 6.5433139,45.377045 c 0.1115064,-0.381667 0.3211909,-0.701253 0.6294105,-0.959844 0.2541443,-0.213218 0.4983303,-0.532739 0.5428095,-0.70993 0.130274,-0.51889 0.5258774,-1.197231 0.8397957,-1.440125 0.1600862,-0.123863 0.391479,-0.4329 0.5143641,-0.686796 0.1228802,-0.253896 0.3241325,-0.495452 0.4472252,-0.5368 0.1230927,-0.04135 0.367612,-0.197444 0.5433071,-0.346974 0.321017,-0.273203 0.611503,-0.4326 1.646152,-0.903326 0.420688,-0.191399 1.074771,-0.304053 1.816357,-0.304053 z m 4.139837,1.270813 c -0.03043,0 -0.02226,0.08241 0.01821,0.183143 l 0.07362,0.183148 h -1.090115 c -1.117034,0 -1.676728,0.08096 -3.491708,0.505318 -2.12968,0.49794 -3.719589,1.336775 -4.7949502,2.529937 -0.2341457,0.259793 -0.5499426,0.509372 -0.7017849,0.554688 -0.4049387,0.120841 -0.6030519,0.479084 -1.1245549,2.033442 -0.2578471,0.768517 -0.5132277,1.50708 -0.5675174,1.641391 -0.054288,0.134306 -0.085148,1.315598 -0.068631,2.625091 0.019158,1.518959 -0.018284,2.437528 -0.1035712,2.53733 -0.1516655,0.177485 0.2034082,0.504589 0.5550391,0.51128 0.1119333,0.0023 0.4569353,0.139373 0.7666723,0.305003 1.0586948,0.566145 1.5693306,0.797826 1.7689409,0.801979 0.1097876,0.0023 0.3432571,0.08027 0.5188506,0.173129 C 9.975897,55.638287 9.6919212,54.762778 9.0122938,54.08481 8.0620584,53.136897 7.4879349,51.258421 7.7572147,49.978342 c 0.084761,-0.402923 0.1519051,-0.814996 0.1494904,-0.91573 -0.01048,-0.415535 0.1405559,-1.353758 0.2076416,-1.28965 0.1048616,0.100199 0.5403175,-0.305308 0.5403175,-0.503173 0,-0.415733 1.4229018,-2.724771 1.6790938,-2.724771 0.07021,0 0.381642,-0.166992 0.692049,-0.371063 0.310412,-0.204075 0.964458,-0.533735 1.453487,-0.732582 l 0.88921,-0.36152 h 1.133788 c 1.880318,0 4.996358,1.2542 5.543659,2.231373 0.08208,0.146544 0.370219,0.533574 0.640388,0.860165 0.270168,0.326591 0.453416,0.65219 0.407295,0.723519 -0.04937,0.07637 -0.02318,0.09396 0.06364,0.04269 0.08114,-0.04791 0.147495,-0.225031 0.147495,-0.393476 0,-0.245027 0.0484,-0.291487 0.242081,-0.232747 0.138948,0.04213 0.325745,-0.0065 0.438242,-0.113988 0.107803,-0.103013 0.311533,-0.187199 0.452963,-0.187199 0.319347,0 0.476564,-0.219978 0.286757,-0.401349 -0.07821,-0.07474 -0.143284,-0.275894 -0.14425,-0.447132 -0.0029,-0.465009 -0.126686,-0.578717 -0.894702,-0.822013 -0.772768,-0.2448 -1.041357,-0.673657 -0.505878,-0.80746 0.36781,-0.09191 0.189999,-0.396924 -0.512611,-0.879718 C 20.374185,42.451059 20.038288,42.199434 19.920913,42.0933 19.713141,41.905427 17.77304,40.760009 17.662572,40.760009 Z m -3.079172,2.68685 c 0,1.674193 -3.675356,0.793265 -4.52542,2.181294 -0.2314745,0.377962 -0.5538781,0.889325 -0.7162583,1.136313 -1.2287296,1.869047 -0.6541425,5.585186 1.1669803,7.548323 1.115808,1.202811 1.303828,1.288473 3.361183,1.531935 0.443376,0.05247 0.798059,0.180513 1.022232,0.369153 0.471305,0.396614 1.310265,0.396859 2.073162,4.61e-4 0.31357,-0.162931 0.808728,-0.406051 1.100595,-0.540136 0.700495,-0.321806 1.860024,-1.460707 2.4253,-2.382326 l 0.45347,-0.739496 -0.133273,-0.43235 c -0.13363,-0.433509 -0.288125,-1.433832 -0.53757,-3.484772 -0.203266,-1.671295 -1.480406,-3.846061 -2.258588,-3.846061 -0.167079,0 -0.486672,-0.181494 -0.731737,-0.415657 -0.659093,-0.62979 -1.648823,-0.923197 -2.700076,-0.926695 z m 0.07263,0.09109 c 0,-0.373643 0.643137,0.148173 0.643137,0.446896 0,0.09227 0.08866,0.200213 0.19691,0.239899 0.124759,0.04573 0.183244,0.192627 0.159724,0.401352 -0.02907,0.257957 0.0574,0.390998 0.399057,0.613823 0.239844,0.156424 0.499368,0.407362 0.57675,0.557783 0.07739,0.15042 0.340992,0.368446 0.58599,0.484335 0.594402,0.281159 1.148261,0.883649 1.148261,1.24911 0,0.16282 0.148868,0.689998 0.330677,1.171606 0.181814,0.481612 0.352443,1.041859 0.379343,1.245058 0.0269,0.203194 0.146109,0.472065 0.264793,0.597372 l 0.215876,0.22774 -0.138011,0.457385 c -0.0759,0.251533 -0.236807,0.797516 -0.35763,1.213102 -0.296706,1.020557 -0.488435,1.265275 -1.520369,1.940437 l -0.88472,0.57877 -1.221384,0.03959 c -0.671755,0.02173 -1.307638,0.0095 -1.413055,-0.02695 -0.105421,-0.03646 -0.565425,-0.180171 -1.022232,-0.319554 -0.456812,-0.139377 -1.019485,-0.41109 -1.250337,-0.603569 C 11.517977,53.859661 11.250798,53.7023 11.155103,53.7023 10.680881,53.7023 9.8571818,52.437417 9.6621836,51.409881 9.5892206,51.02543 9.4477566,50.58924 9.3477292,50.440504 8.8195626,49.655166 9.1813165,48.137919 10.48526,45.669654 c 0.580831,-1.099458 4.170784,-1.010764 4.170784,-2.131691 z m 2.062476,62.04834 c -0.765055,-0.003 -1.566346,0.0412 -2.089384,0.13259 -0.456807,0.0798 -1.594704,0.14749 -2.528621,0.15072 -1.908647,0.006 -1.846801,-0.023 -2.071418,0.97487 -0.1663792,0.73913 -0.055524,1.56665 0.289752,2.16579 l 0.259297,0.45 -0.148988,0.34363 c -0.227361,0.52439 0.09147,4.34654 0.432997,5.19103 0.08129,0.20102 0.551228,0.39564 1.211407,0.50151 0.751021,0.12043 2.559042,0.0665 3.386136,-0.10088 1.053151,-0.21315 1.858102,-0.22915 2.532122,-0.0503 1.710587,0.45388 2.429903,-0.71395 2.084139,-3.38319 -0.103185,-0.79658 -0.224216,-2.07026 -0.269033,-2.83041 -0.09411,-1.59666 -0.126831,-1.71289 -0.524091,-1.85721 l -0.294991,-0.10707 0.07762,-0.46359 c 0.135772,-0.81091 0.13097,-0.82005 -0.475178,-0.97153 -0.377869,-0.0944 -1.106704,-0.14338 -1.871764,-0.14595 z M 14.513158,11.213305 c 0.436356,-0.05712 0.817263,0.806842 1.660127,2.524215 1.323873,2.697456 1.578854,3.154291 2.078653,3.723961 0.508564,0.579665 1.012997,1.487607 1.012997,1.823349 0,0.08516 0.141159,0.408662 0.313707,0.718751 0.172549,0.310084 0.26159,0.594677 0.197658,0.632425 -0.367629,0.217102 -5.339744,-0.03047 -5.656462,-0.281635 -0.132037,-0.104707 -0.415447,-0.126049 -0.919907,-0.06939 -3.5384078,0.397375 -4.2269093,-0.854444 -2.056442,-3.739224 0.227364,-0.302193 0.847113,-1.350738 1.377117,-2.330099 1.064505,-1.967039 1.556196,-2.945232 1.992552,-3.002349 z m 3.437291,66.151909 c 0.08601,0 -0.0367,0.310255 -0.346647,0.89832 -0.521691,0.989879 -0.551092,1.178966 -0.210139,1.353323 0.362884,0.185562 0.563315,0.862403 0.385085,1.300139 -0.573443,1.408437 -0.578963,2.034674 -0.01724,1.927322 0.250145,-0.0478 0.435427,-0.0051 0.580996,0.134025 l 0.21363,0.204131 -0.221116,0.357943 -0.221121,0.357708 0.240588,0.426624 c 0.279234,0.495152 0.201093,0.643085 -0.238588,0.451663 -0.171281,-0.07455 -0.514007,-0.104167 -0.761434,-0.06582 l -0.449722,0.06963 -0.399056,-0.381316 c -0.31431,-0.300338 -0.508149,-0.381317 -0.911923,-0.381317 h -0.512616 l -0.558781,0.549439 c -0.616784,0.606472 -1.029182,0.735107 -0.880227,0.274717 0.04888,-0.151094 0.268511,-0.419784 0.487908,-0.597132 l 0.398805,-0.32241 -0.01246,-0.568516 c -0.0272,-1.241104 -1.150802,-0.679486 -3.187733,1.593223 -0.277915,0.310089 -0.841597,0.91112 -1.252582,1.335677 -0.9823463,1.014789 -0.7502822,1.387859 0.29998,0.482189 0.187286,-0.1615 0.557342,-0.303721 0.894451,-0.343638 0.316256,-0.03747 0.690006,-0.101772 0.830562,-0.142843 0.140556,-0.04107 0.362608,3.41e-4 0.493394,0.09205 l 0.237841,0.166692 -0.94062,0.466924 c -0.517283,0.256775 -1.314375,0.780183 -1.771187,1.163503 -0.4568068,0.383324 -1.0050155,0.783104 -1.2183898,0.888301 L 8.5140281,89.247026 8.1993226,89.083195 C 8.026168,88.99313 7.7886466,88.89156 7.6717355,88.857365 7.0160621,88.665537 7.6841955,87.35986 9.0218966,86.218444 11.51972,84.087148 12.521611,82.85077 12.931133,81.394654 l 0.300729,-1.069778 -0.154981,-0.554207 c -0.191005,-0.683025 -0.04791,-0.886205 0.418775,-0.594031 0.207289,0.129779 0.5905,0.20127 1.078635,0.20127 h 0.756938 l 0.748954,-0.534174 c 0.411898,-0.29378 0.996921,-0.766532 1.300248,-1.050225 0.317367,-0.296831 0.503122,-0.428295 0.570014,-0.428295 z M 6.5949892,55.045377 c 0,0.07106 0.013716,0.168976 0.1956613,0.37559 0.1819418,0.206609 0.3306788,0.452162 0.3306788,0.545623 0,0.09346 0.3228479,0.397648 0.7172585,0.676066 0.3944153,0.278414 0.8112924,0.66711 0.9263972,0.863742 0.359088,0.613422 2.633005,1.814064 3.881033,2.049178 1.089173,0.205187 2.94288,0.147042 3.747764,-0.117564 0.797963,-0.262332 1.158452,-0.485526 0.783895,-0.485526 -0.119471,0 -0.217378,0.05494 -0.217378,0.122095 0,0.06714 -0.158125,0.117527 -0.35139,0.112082 l -0.351394,-0.0098 0.323944,-0.142843 c 0.544035,-0.239891 1.145513,-0.699228 1.145513,-0.875191 0,-0.09163 0.122688,-0.203748 0.27253,-0.249202 0.557322,-0.169023 -0.08004,-0.296481 -1.492668,-0.298327 -0.776573,-9.22e-4 -1.466579,-0.0492 -1.533346,-0.107074 -0.178607,-0.154823 -1.17874,-0.367353 -1.434266,-0.304764 -0.379294,0.09291 -1.753965,-0.263111 -1.753965,-0.454289 0,-0.116212 -0.253115,-0.216563 -0.766673,-0.303573 C 10.596911,56.370177 10.165657,56.277034 10.06024,56.234625 9.6575665,56.072599 8.8301196,55.901227 8.446783,55.900766 8.2269856,55.900388 7.9786608,55.821347 7.8949908,55.725015 7.7232704,55.527303 6.5949892,54.84803 6.5949892,55.045373 Z m 0.2684076,-31.321173 0.3548854,0.360329 c 0.4203548,0.426882 1.0689371,1.424592 1.8161072,2.794402 l 0.5415625,0.992995 0.069879,0.974868 0.069879,0.974868 -0.2725281,0.260647 C 9.0792664,30.430364 8.7279403,30.390067 7.7009468,29.883193 6.283688,29.183694 5.2536744,27.293906 5.7697897,26.340229 5.9042511,26.091765 5.9519901,25.784768 5.9100465,25.436663 5.8376093,24.835466 6.1192162,24.18938 6.5793882,23.901626 Z"
       sodipodi:nodetypes="cccscccscssssscsssssccccssssssssscsssssccccscccccssssssssscccsccccccsccssssssssssssssssssccsccscccccssssccccssccsssssssssssscccccccscccssssscccsssscccssssssssssscccssssssscssssssssssssssssssssssssccsssssssssccsssssscccssssssscccsssssssssssccsscssscccsssssssccccccsssscccccccssscsssssscsscccccccssssscscccscccssssssscsssscccccccsssscsscccsscccsssssscccssssssscssssssssccsccssssssssccscccccsscssssccccssssscccscccssssssscccsssscccssssscccsscccccccscssssscccsccccccccscsccccccccccssssscsscsscccccsssssssscssccssssssssssscsssccccssssscsssscccccsscccssssssscccccsssscccsscccscccsccssscsssscccccccccccsssssssscccccccccsscsssccssssssscscccssssccccsscccsccscssssssscssccccccsccssssscccsccccscsssscssssssscccsssssssssscssscssssccsssssssssscsssscccscssssscccsssccsssssssssscccsccccsssscssssscsccssssssccccssssssscscsssssssssccccsccssccscccssssscccsccccscccssccsssscssssssscccscsssssccssscccccccsssccc" /></g></svg>
