<?xml version="1.0" encoding="UTF-8" standalone="no"?>
<!-- Created with Inkscape (http://www.inkscape.org/) -->

<svg
   width="850"
   height="50"
   viewBox="0 0 224.89583 13.229167"
   version="1.1"
   id="svg5"
   xml:space="preserve"
   sodipodi:docname="title_brush.svg"
   inkscape:version="1.2.1 (0f2f062aeb, 2022-09-21, custom)"
   xmlns:inkscape="http://www.inkscape.org/namespaces/inkscape"
   xmlns:sodipodi="http://sodipodi.sourceforge.net/DTD/sodipodi-0.dtd"
   xmlns="http://www.w3.org/2000/svg"
   xmlns:svg="http://www.w3.org/2000/svg"><sodipodi:namedview
     id="namedview7"
     pagecolor="#ffffff"
     bordercolor="#666666"
     borderopacity="1.0"
     inkscape:showpageshadow="2"
     inkscape:pageopacity="0.0"
     inkscape:pagecheckerboard="0"
     inkscape:deskcolor="#d1d1d1"
     inkscape:document-units="mm"
     showgrid="false"
     inkscape:zoom="0.96428113"
     inkscape:cx="503.48387"
     inkscape:cy="82.444836"
     inkscape:window-width="1920"
     inkscape:window-height="962"
     inkscape:window-x="0"
     inkscape:window-y="27"
     inkscape:window-maximized="1"
     inkscape:current-layer="layer1" /><defs
     id="defs2" /><g
     inkscape:label="Layer 1"
     inkscape:groupmode="layer"
     id="layer1"
     transform="translate(-4.6440065,-20.62752)"><path
       style="fill:#000000;stroke:#404040;stroke-width:0;stroke-linecap:round;stroke-linejoin:round"
       d="m 224.70668,20.627519 -3.61697,1.621091 2.91094,1.666047 -4.94854,1.396814 6.25388,1.620573 -4.44985,1.425236 3.206,2.455664 -4.40541,1.008207 4.59145,2.035535 v 0 l -0.35812,-2.035535 4.40542,-1.008207 -3.20601,-2.455664 4.45037,-1.425236 -6.25439,-1.620573 4.94853,-1.396814 -3.99729,-1.863142 z"
       id="path13802"
       sodipodi:nodetypes="cccccccccccccccccc" /><path
       style="fill:#000000;stroke:#404040;stroke-width:0;stroke-linecap:round;stroke-linejoin:round"
       d="m 210.48983,20.627519 -3.15847,1.62109 2.91094,1.666048 -4.94854,1.396814 6.2544,1.620573 -4.45037,1.425236 3.206,2.455664 -4.40541,1.008207 4.59145,2.035535 h 5.556 l -2.73912,-2.035535 4.4049,-1.008207 -3.20549,-2.455664 4.45037,-1.425236 -6.25491,-1.620573 4.94905,-1.396814 -3.94361,-1.753658 2.72179,-1.53348 z"
       id="path24212"
       sodipodi:nodetypes="ccccccccccccccccccc" /><path
       id="path24210"
       style="fill:#000000;stroke:#404040;stroke-width:0;stroke-linecap:round;stroke-linejoin:round"
       d="m 28.074099,20.627519 5.729366,2.31097 -5.243607,1.212846 3.933093,1.420068 -5.477185,1.380278 7.778336,1.744596 -5.950541,2.52336 3.750676,1.504301 -4.520138,1.132748 h 98.980531 79.05564 l -4.59145,-2.035535 4.40541,-1.008207 -3.206,-2.455664 4.44985,-1.425236 -6.25388,-1.620573 4.94854,-1.396814 -2.91094,-1.666048 3.15847,-1.62109 h -79.05564 z" /><path
       style="fill:#000000;stroke:#404040;stroke-width:0;stroke-linecap:round;stroke-linejoin:round"
       d="m 19.701344,20.62752 2.313694,2.310969 -5.243608,1.212846 3.933093,1.420068 -5.477185,1.380278 7.778337,1.744596 -5.950541,2.52336 3.750675,1.504301 -2.138752,1.132748 h 5.026948 l 4.519621,-1.132748 -3.750159,-1.504301 5.950541,-2.52336 -7.778337,-1.744596 5.477186,-1.380278 -3.933094,-1.420068 5.243608,-1.212846 -5.729366,-2.31097 z"
       id="path13800"
       sodipodi:nodetypes="ccccccccccccccccccc" /><path
       style="fill:#000000;stroke:#404040;stroke-width:0;stroke-linecap:round;stroke-linejoin:round"
       d="m 11.431706,22.93849 v 0 l -5.2436071,1.212845 3.9330931,1.420069 -5.477185,1.380277 7.778337,1.744597 -5.9505415,2.52336 3.7501585,1.504301 v 0 l -0.2862872,1.132747 4.5201372,-1.132747 -3.750675,-1.504301 5.950541,-2.52336 -7.7783366,-1.744597 5.4771846,-1.380277 -3.933093,-1.420069 5.243607,-1.212845 -5.7293652,-2.31097 z"
       id="rect9178-3"
       sodipodi:nodetypes="ccccccccccccccccccc" /></g></svg>
